<svg id="visual" viewBox="0 0 960 150" width="960" height="150" xmlns="http://www.w3.org/2000/svg" xmlns:xlink="http://www.w3.org/1999/xlink" version="1.1"><path d="M0 130L48 74L96 130L144 122L192 76L240 115L288 36L336 89L384 133L432 84L480 66L528 108L576 72L624 112L672 130L720 116L768 113L816 108L864 29L912 95L960 45L960 151L912 151L864 151L816 151L768 151L720 151L672 151L624 151L576 151L528 151L480 151L432 151L384 151L336 151L288 151L240 151L192 151L144 151L96 151L48 151L0 151Z" fill="#FAE7F4" stroke-linecap="square" stroke-linejoin="bevel"></path></svg>