<svg id="visual" viewBox="0 0 540 960" width="540" height="960" xmlns="http://www.w3.org/2000/svg" xmlns:xlink="http://www.w3.org/1999/xlink" version="1.1"><path d="M0 922L27 814L54 923L81 906L108 818L135 894L162 743L189 843L216 929L243 835L270 799L297 880L324 811L351 889L378 922L405 895L432 891L459 881L486 729L513 854L540 760L540 961L513 961L486 961L459 961L432 961L405 961L378 961L351 961L324 961L297 961L270 961L243 961L216 961L189 961L162 961L135 961L108 961L81 961L54 961L27 961L0 961Z" fill="#FAE7F4" stroke-linecap="square" stroke-linejoin="bevel"></path></svg>